<svg width="57" height="56" viewBox="0 0 57 56" fill="none" xmlns="http://www.w3.org/2000/svg">
<g filter="url(#filter0_d)">
<path d="M52.8554 45.5422L50.4223 33.1106C50.16 31.7712 49.0713 30.6953 47.5806 30.3028L41.018 28.5747C40.8821 27.1747 40.2244 25.8538 39.1297 24.8083C38.2541 23.9721 37.1529 23.3632 35.9389 23.0272C36.1466 22.826 36.3392 22.6254 36.516 22.4293C38.0766 20.6971 38.9121 18.7887 39.1248 17.4864H39.6311C40.9479 17.4864 42.0192 16.5516 42.0192 15.4023V14.3339C42.0192 13.5669 41.5248 12.872 40.7814 12.5113V9.94219C40.7814 9.55397 40.4207 9.23925 39.9759 9.23925C39.5311 9.23925 39.1706 9.55387 39.1706 9.94219V12.8263C38.8569 12.8738 38.4826 12.956 38.0998 13.0967C38.0606 13.1092 38.0224 13.1236 37.9863 13.1409C37.8999 13.1753 37.8133 13.2116 37.727 13.2525V7.58794C37.727 6.02297 36.2682 4.74984 34.475 4.74984H32.2519C31.4852 4.74984 30.7361 4.983 30.1425 5.40656L29.9243 5.56219C29.5236 5.84812 29.0179 6.00562 28.5002 6.00562C27.9826 6.00562 27.4767 5.84812 27.076 5.56219L26.858 5.40656C26.2644 4.98309 25.5153 4.74984 24.7485 4.74984H22.5252C20.732 4.74984 19.2732 6.02297 19.2732 7.58794V13.2525C19.187 13.2116 19.1004 13.1753 19.0139 13.1409C18.9778 13.1236 18.9398 13.1092 18.9006 13.0967C18.5177 12.956 18.1434 12.8738 17.8298 12.8263V5.53359C17.8298 3.25753 19.9516 1.40578 22.5596 1.40578H34.4406C37.0487 1.40578 39.1703 3.25753 39.1703 5.53359V6.63853C39.1703 7.02675 39.531 7.34147 39.9757 7.34147C40.4204 7.34147 40.7811 7.02684 40.7811 6.63853V5.53359C40.7811 2.48241 37.9367 0 34.4406 0H22.5596C19.0633 0 16.219 2.48241 16.219 5.53359V12.5114C15.4756 12.8721 14.9812 13.5669 14.9812 14.334V15.4024C14.9812 16.5517 16.0525 17.4865 17.3693 17.4865H17.8756C18.0882 18.7888 18.9238 20.6972 20.4844 22.4294C20.6609 22.6253 20.8534 22.8257 21.061 23.0267C18.2701 23.8003 16.2349 25.9901 15.9824 28.5747L9.41954 30.3028C7.92884 30.6953 6.84002 31.7712 6.57791 33.1106L5.58984 38.159C5.51497 38.5417 5.80973 38.9048 6.24812 38.9701C6.6864 39.0356 7.10266 38.7783 7.17764 38.3956L8.16571 33.3473C8.32426 32.5369 8.98297 31.8861 9.88478 31.6487L15.9547 30.0503V31.4408C14.5633 31.6643 13.3794 32.4983 12.8918 33.654C12.7624 33.9608 12.6819 34.2819 12.6527 34.6086L12.0661 41.18C12.0218 41.675 12.2181 42.1679 12.6043 42.5321C12.9905 42.8964 13.5382 43.1055 14.107 43.1055H15.1112C15.556 43.1055 15.9166 42.7909 15.9166 42.4026C15.9166 42.0143 15.556 41.6997 15.1112 41.6997H14.107C13.9857 41.6997 13.8691 41.6553 13.7867 41.5775C13.7044 41.4998 13.6626 41.3948 13.672 41.2894L14.2587 34.7179C14.2764 34.52 14.3251 34.3254 14.4035 34.1397C14.7427 33.3358 15.6588 32.7914 16.6833 32.7851L16.816 32.7843C16.8222 32.7842 16.8283 32.7842 16.8344 32.7842C17.8301 32.7842 18.7115 33.2769 19.0833 34.043C19.1876 34.2578 19.251 34.4848 19.2718 34.7179L19.8587 41.2895C19.868 41.3948 19.8262 41.4998 19.744 41.5776C19.6617 41.6552 19.5449 41.6997 19.4236 41.6997H18.4194C17.9746 41.6997 17.614 42.0143 17.614 42.4026C17.614 42.7908 17.9746 43.1055 18.4194 43.1055H19.4236C19.9924 43.1055 20.5403 42.8965 20.9264 42.5321C21.3126 42.1677 21.5089 41.6749 21.4646 41.1801L20.8778 34.6086C20.8434 34.224 20.7387 33.8491 20.5665 33.4944C20.0359 32.4016 18.9015 31.6418 17.5653 31.4362V29.6262L20.334 28.8971C20.5859 29.3602 21.0851 30.3608 22.0739 32.5177C23.0705 34.694 24.3092 37.4835 25.4972 40.1953C25.5056 40.2181 25.5154 40.2403 25.5264 40.2621C26.3191 42.0725 27.0882 43.8457 27.7459 45.3753C27.8639 45.6496 28.1643 45.8313 28.5 45.8313C28.8357 45.8313 29.1362 45.6496 29.2541 45.3753C29.9118 43.8457 30.6808 42.0725 31.4737 40.2621C31.4847 40.2403 31.4944 40.218 31.5029 40.1953C32.69 37.4851 33.9281 34.6973 34.9242 32.5217C35.9143 30.362 36.4139 29.3605 36.6659 28.8971L39.4346 29.6262V33.7779C37.5163 34.1032 36.0632 35.5797 36.0632 37.3477C36.0632 39.3531 37.9326 40.9847 40.2306 40.9847C42.5286 40.9847 44.398 39.3532 44.398 37.3477C44.398 35.5855 42.9545 34.1125 41.0454 33.7809V30.0504L47.1154 31.6488C48.0172 31.8862 48.6758 32.537 48.8344 33.3473L51.2676 45.7789C51.3079 45.985 51.2451 46.1866 51.0905 46.3464C50.9361 46.5062 50.719 46.5943 50.4793 46.5943H6.52076C6.2811 46.5943 6.06411 46.5063 5.90953 46.3464C5.75505 46.1866 5.69211 45.9851 5.7325 45.7789L6.53547 41.6762C6.61035 41.2935 6.31558 40.9304 5.87719 40.8651C5.43891 40.7994 5.02265 41.057 4.94767 41.4396L4.14469 45.5423C4.02492 46.1546 4.21946 46.7782 4.67836 47.253C5.13749 47.7278 5.80898 48 6.52076 48H50.4793C51.1911 48 51.8627 47.7277 52.3217 47.2529C52.7806 46.7781 52.9751 46.1545 52.8554 45.5422ZM39.18 14.2583C39.6092 14.165 39.9537 14.1667 39.9575 14.1667C40.0963 14.1683 40.2312 14.14 40.3511 14.0852C40.387 14.1631 40.4082 14.2468 40.4082 14.334V15.4024C40.4082 15.7764 40.0595 16.0807 39.6309 16.0807H39.18V14.2583ZM17.82 16.0807H17.3692C16.9406 16.0807 16.5919 15.7764 16.5919 15.4024V14.334C16.5919 14.2468 16.6132 14.1631 16.6489 14.0853C16.7687 14.1401 16.9036 14.1684 17.0425 14.1667C17.0486 14.1677 17.3922 14.166 17.82 14.2587V16.0807ZM19.4308 16.8689V15.0222C19.6749 15.0861 19.9418 15.0773 20.1883 14.9876C20.611 14.8337 20.884 14.4762 20.884 14.0767V7.58794C20.884 6.79819 21.6203 6.15563 22.5252 6.15563H24.7483C25.1445 6.15563 25.5315 6.27609 25.8382 6.49491L26.0563 6.65053C26.7439 7.14122 27.6118 7.41131 28.5 7.41131C29.3883 7.41131 30.2562 7.14113 30.9438 6.65053L31.1618 6.49491C31.4684 6.27609 31.8556 6.15563 32.2517 6.15563H34.4748C35.3798 6.15563 36.116 6.79819 36.116 7.58794V14.0768C36.116 14.4762 36.3891 14.8338 36.8118 14.9877C36.9529 15.0391 37.1008 15.064 37.2473 15.064C37.3565 15.064 37.4649 15.0501 37.5692 15.0229V16.8689C37.5692 17.8952 36.7563 19.8881 35.2496 21.5604C34.7505 22.1144 34.1089 22.7095 33.3191 23.2297C33.294 23.2443 33.2701 23.2601 33.2472 23.277C32.0236 24.0666 30.4502 24.6714 28.5 24.6714C26.5499 24.6714 24.9765 24.0666 23.7527 23.2769C23.7299 23.2601 23.706 23.2443 23.6811 23.2297C22.8912 22.7095 22.2497 22.1144 21.7505 21.5604C20.2439 19.8882 19.4308 17.8952 19.4308 16.8689ZM33.7766 28.2253L28.5 31.6672L23.2235 28.2253C23.7467 27.6449 24.0399 26.8999 24.0399 26.235V25.1019C25.2807 25.6843 26.7613 26.0773 28.5 26.0773C30.2388 26.0773 31.7195 25.6843 32.9602 25.1019V26.235C32.9602 26.8999 33.2533 27.6449 33.7766 28.2253ZM21.8793 27.4407C21.4492 27.2977 20.9723 27.2743 20.5213 27.3811C20.5015 27.3851 20.4822 27.3897 20.4634 27.3946L17.6808 28.1273C18.1514 26.1078 20.0305 24.5003 22.4291 24.189V26.235C22.4291 26.676 22.2035 27.1319 21.8793 27.4407ZM24.0652 33.0833C24.0637 33.0801 24.0622 33.0768 24.0608 33.0736C24.02 32.9835 23.9797 32.8946 23.9398 32.8068C23.9326 32.7908 23.9254 32.775 23.9182 32.7593C23.8791 32.6733 23.8403 32.588 23.802 32.5041C23.7994 32.4982 23.7967 32.4923 23.794 32.4863C23.6746 32.2245 23.5596 31.9733 23.4489 31.7327C23.4409 31.7153 23.4328 31.6975 23.4248 31.6802C23.393 31.6112 23.3617 31.5432 23.3307 31.4761C23.3193 31.4514 23.308 31.4271 23.2967 31.4027C23.2666 31.3376 23.2368 31.2729 23.2073 31.2097C23.1985 31.1907 23.1899 31.1723 23.1812 31.1535C23.1279 31.0386 23.0757 30.9265 23.0247 30.8173C23.011 30.7878 22.9969 30.7577 22.9833 30.7285C22.9633 30.686 22.9438 30.6445 22.9243 30.6028C22.9032 30.5578 22.8822 30.5132 22.8616 30.4693C22.8538 30.4529 22.8458 30.4356 22.838 30.4192C22.8318 30.4061 22.8261 30.394 22.82 30.381C22.727 30.1838 22.6386 29.9978 22.5547 29.823C22.554 29.8216 22.5533 29.8202 22.5526 29.8188C22.5079 29.7257 22.4642 29.6347 22.4222 29.5481C22.4004 29.5032 22.3789 29.4591 22.3579 29.4158L26.8959 32.3758L24.9997 33.0788C24.9964 33.0801 24.9929 33.0813 24.9896 33.0826L24.1979 33.3761C24.153 33.277 24.1091 33.1799 24.0652 33.0833ZM25.987 37.3872C25.8279 37.0269 25.6676 36.6646 25.507 36.3026C25.2559 35.7365 25.016 35.1982 24.7865 34.6853L25.087 34.5739L26.3151 35.8197L25.987 37.3872ZM28.5156 43.1002C28.4925 43.0583 28.465 43.0189 28.4332 42.9821C28.0693 42.1426 27.6074 41.0803 27.0961 39.9115L27.8481 36.3186H29.152L29.9039 39.9115C29.3682 41.136 28.8871 42.2432 28.5156 43.1002ZM29.454 34.9129H27.546L26.6431 33.9969L28.5 33.3085L30.3569 33.9969L29.454 34.9129ZM31.493 36.3026C31.3324 36.6646 31.1721 37.0269 31.0131 37.3872L30.685 35.8196L31.913 34.5738L32.2136 34.6852C31.984 35.1981 31.7442 35.7365 31.493 36.3026ZM34.578 29.5481C34.5381 29.6302 34.4966 29.7164 34.4544 29.8043C34.4489 29.8158 34.4434 29.8273 34.4379 29.8388C34.3961 29.926 34.3535 30.0151 34.3095 30.1078C34.3066 30.1139 34.3036 30.1204 34.3007 30.1266C34.2627 30.2065 34.2237 30.289 34.184 30.3731C34.1766 30.3889 34.1696 30.4034 34.1622 30.4192C34.1534 30.4381 34.144 30.4581 34.1351 30.4771C34.1174 30.5146 34.0995 30.5528 34.0815 30.5911C34.0593 30.6382 34.0373 30.6852 34.0146 30.7335C34.0074 30.7489 34 30.7649 33.9927 30.7804C33.9366 30.9003 33.8791 31.0238 33.8202 31.1508C33.811 31.1707 33.8018 31.1902 33.7926 31.2103C33.7635 31.273 33.7338 31.3371 33.7041 31.4015C33.6925 31.4267 33.6808 31.4518 33.6691 31.4773C33.6383 31.5438 33.6073 31.6111 33.5759 31.6793C33.5671 31.6984 33.5582 31.7179 33.5494 31.737C33.4401 31.9744 33.3268 32.222 33.2092 32.48C33.2053 32.4885 33.2015 32.4968 33.1976 32.5055C33.1596 32.5888 33.1211 32.6736 33.0822 32.759C33.075 32.7749 33.0677 32.7908 33.0604 32.8069C33.0202 32.8952 32.9797 32.9844 32.9387 33.0751C32.9379 33.0768 32.9372 33.0785 32.9364 33.0801C32.8922 33.1777 32.8477 33.276 32.8024 33.3763L32.0099 33.0825C32.0071 33.0815 32.0043 33.0804 32.0017 33.0794L30.1044 32.376L34.6424 29.4159C34.6211 29.4591 34.5997 29.5031 34.578 29.5481ZM36.5367 27.3947C36.5366 27.3947 36.5364 27.3946 36.5363 27.3946C36.5356 27.3944 36.5349 27.3943 36.5342 27.394C36.0669 27.2717 35.5685 27.2919 35.1209 27.4407C34.7966 27.1319 34.5711 26.676 34.5711 26.235V24.188C36.9847 24.4985 38.8581 26.0908 39.3226 28.1282L36.5367 27.3947ZM42.7872 37.3477C42.7872 38.578 41.6403 39.5789 40.2306 39.5789C38.8209 39.5789 37.674 38.578 37.674 37.3477C37.674 36.1173 38.8209 35.1164 40.2306 35.1164C41.6403 35.1164 42.7872 36.1173 42.7872 37.3477Z" fill="white"/>
</g>
<defs>
<filter id="filter0_d" x="-3" y="0" width="63" height="56" filterUnits="userSpaceOnUse" color-interpolation-filters="sRGB">
<feFlood flood-opacity="0" result="BackgroundImageFix"/>
<feColorMatrix in="SourceAlpha" type="matrix" values="0 0 0 0 0 0 0 0 0 0 0 0 0 0 0 0 0 0 127 0"/>
<feOffset dy="4"/>
<feGaussianBlur stdDeviation="2"/>
<feColorMatrix type="matrix" values="0 0 0 0 0 0 0 0 0 0 0 0 0 0 0 0 0 0 0.25 0"/>
<feBlend mode="normal" in2="BackgroundImageFix" result="effect1_dropShadow"/>
<feBlend mode="normal" in="SourceGraphic" in2="effect1_dropShadow" result="shape"/>
</filter>
</defs>
</svg>
