<svg width="51" height="64" viewBox="0 0 51 64" fill="none" xmlns="http://www.w3.org/2000/svg">
<g clip-path="url(#clip0)">
<path d="M47.0093 51.2H3.99075C1.79137 51.2 0 49.4032 0 47.1936V7.208C0 4.9984 1.79138 3.2 3.99234 3.2H47.0077C49.2086 3.2 51 4.9984 51 7.208V47.1936C51 49.4032 49.2102 51.2 47.0093 51.2ZM3.99234 6.4C3.54928 6.4 3.1875 6.7632 3.1875 7.208V47.1936C3.1875 47.6384 3.54769 48 3.99075 48H47.0093C47.4523 48 47.8125 47.6384 47.8125 47.1936V7.208C47.8125 6.7632 47.4507 6.4 47.0077 6.4H3.99234ZM49.4062 16H1.59375C0.714 16 0 15.2832 0 14.4C0 13.5168 0.714 12.8 1.59375 12.8H49.4062C50.2876 12.8 51 13.5168 51 14.4C51 15.2832 50.2876 16 49.4062 16ZM9.5625 9.6C8.68275 9.6 7.96875 8.8832 7.96875 8V1.6C7.96875 0.7168 8.68275 0 9.5625 0C10.4423 0 11.1562 0.7168 11.1562 1.6V8C11.1562 8.8832 10.4423 9.6 9.5625 9.6ZM41.4375 9.6C40.5562 9.6 39.8438 8.8832 39.8438 8V1.6C39.8438 0.7168 40.5562 0 41.4375 0C42.3188 0 43.0312 0.7168 43.0312 1.6V8C43.0312 8.8832 42.3188 9.6 41.4375 9.6Z" fill="#003B46"/>
<path d="M9.5625 30.4002C10.4427 30.4002 11.1562 29.6839 11.1562 28.8002C11.1562 27.9165 10.4427 27.2002 9.5625 27.2002C8.6823 27.2002 7.96875 27.9165 7.96875 28.8002C7.96875 29.6839 8.6823 30.4002 9.5625 30.4002Z" fill="#003B46"/>
<path d="M9.5625 36.8001C10.4427 36.8001 11.1562 36.0838 11.1562 35.2001C11.1562 34.3164 10.4427 33.6001 9.5625 33.6001C8.6823 33.6001 7.96875 34.3164 7.96875 35.2001C7.96875 36.0838 8.6823 36.8001 9.5625 36.8001Z" fill="#003B46"/>
<path d="M9.5625 43.2C10.4427 43.2 11.1562 42.4837 11.1562 41.6C11.1562 40.7163 10.4427 40 9.5625 40C8.6823 40 7.96875 40.7163 7.96875 41.6C7.96875 42.4837 8.6823 43.2 9.5625 43.2Z" fill="#003B46"/>
<path d="M35.0625 23.9998C35.9427 23.9998 36.6562 23.2835 36.6562 22.3998C36.6562 21.5161 35.9427 20.7998 35.0625 20.7998C34.1823 20.7998 33.4688 21.5161 33.4688 22.3998C33.4688 23.2835 34.1823 23.9998 35.0625 23.9998Z" fill="#003B46"/>
<path d="M35.0625 30.4002C35.9427 30.4002 36.6562 29.6839 36.6562 28.8002C36.6562 27.9165 35.9427 27.2002 35.0625 27.2002C34.1823 27.2002 33.4688 27.9165 33.4688 28.8002C33.4688 29.6839 34.1823 30.4002 35.0625 30.4002Z" fill="#003B46"/>
<path d="M35.0625 36.8001C35.9427 36.8001 36.6562 36.0838 36.6562 35.2001C36.6562 34.3164 35.9427 33.6001 35.0625 33.6001C34.1823 33.6001 33.4688 34.3164 33.4688 35.2001C33.4688 36.0838 34.1823 36.8001 35.0625 36.8001Z" fill="#003B46"/>
<path d="M35.0625 43.2C35.9427 43.2 36.6562 42.4837 36.6562 41.6C36.6562 40.7163 35.9427 40 35.0625 40C34.1823 40 33.4688 40.7163 33.4688 41.6C33.4688 42.4837 34.1823 43.2 35.0625 43.2Z" fill="#003B46"/>
<path d="M41.4375 23.9998C42.3177 23.9998 43.0312 23.2835 43.0312 22.3998C43.0312 21.5161 42.3177 20.7998 41.4375 20.7998C40.5573 20.7998 39.8438 21.5161 39.8438 22.3998C39.8438 23.2835 40.5573 23.9998 41.4375 23.9998Z" fill="#003B46"/>
<path d="M41.4375 30.4002C42.3177 30.4002 43.0312 29.6839 43.0312 28.8002C43.0312 27.9165 42.3177 27.2002 41.4375 27.2002C40.5573 27.2002 39.8438 27.9165 39.8438 28.8002C39.8438 29.6839 40.5573 30.4002 41.4375 30.4002Z" fill="#003B46"/>
<path d="M41.4375 36.8001C42.3177 36.8001 43.0312 36.0838 43.0312 35.2001C43.0312 34.3164 42.3177 33.6001 41.4375 33.6001C40.5573 33.6001 39.8438 34.3164 39.8438 35.2001C39.8438 36.0838 40.5573 36.8001 41.4375 36.8001Z" fill="#003B46"/>
<path d="M22.3125 23.9998C23.1927 23.9998 23.9062 23.2835 23.9062 22.3998C23.9062 21.5161 23.1927 20.7998 22.3125 20.7998C21.4323 20.7998 20.7188 21.5161 20.7188 22.3998C20.7188 23.2835 21.4323 23.9998 22.3125 23.9998Z" fill="#003B46"/>
<path d="M22.3125 30.4002C23.1927 30.4002 23.9062 29.6839 23.9062 28.8002C23.9062 27.9165 23.1927 27.2002 22.3125 27.2002C21.4323 27.2002 20.7188 27.9165 20.7188 28.8002C20.7188 29.6839 21.4323 30.4002 22.3125 30.4002Z" fill="#003B46"/>
<path d="M22.3125 36.8001C23.1927 36.8001 23.9062 36.0838 23.9062 35.2001C23.9062 34.3164 23.1927 33.6001 22.3125 33.6001C21.4323 33.6001 20.7188 34.3164 20.7188 35.2001C20.7188 36.0838 21.4323 36.8001 22.3125 36.8001Z" fill="#003B46"/>
<path d="M22.3125 43.2C23.1927 43.2 23.9062 42.4837 23.9062 41.6C23.9062 40.7163 23.1927 40 22.3125 40C21.4323 40 20.7188 40.7163 20.7188 41.6C20.7188 42.4837 21.4323 43.2 22.3125 43.2Z" fill="#003B46"/>
<path d="M15.9375 23.9998C16.8177 23.9998 17.5312 23.2835 17.5312 22.3998C17.5312 21.5161 16.8177 20.7998 15.9375 20.7998C15.0573 20.7998 14.3438 21.5161 14.3438 22.3998C14.3438 23.2835 15.0573 23.9998 15.9375 23.9998Z" fill="#003B46"/>
<path d="M15.9375 30.4002C16.8177 30.4002 17.5312 29.6839 17.5312 28.8002C17.5312 27.9165 16.8177 27.2002 15.9375 27.2002C15.0573 27.2002 14.3438 27.9165 14.3438 28.8002C14.3438 29.6839 15.0573 30.4002 15.9375 30.4002Z" fill="#003B46"/>
<path d="M15.9375 36.8001C16.8177 36.8001 17.5312 36.0838 17.5312 35.2001C17.5312 34.3164 16.8177 33.6001 15.9375 33.6001C15.0573 33.6001 14.3438 34.3164 14.3438 35.2001C14.3438 36.0838 15.0573 36.8001 15.9375 36.8001Z" fill="#003B46"/>
<path d="M15.9375 43.2C16.8177 43.2 17.5312 42.4837 17.5312 41.6C17.5312 40.7163 16.8177 40 15.9375 40C15.0573 40 14.3438 40.7163 14.3438 41.6C14.3438 42.4837 15.0573 43.2 15.9375 43.2Z" fill="#003B46"/>
<path d="M28.6875 23.9998C29.5677 23.9998 30.2812 23.2835 30.2812 22.3998C30.2812 21.5161 29.5677 20.7998 28.6875 20.7998C27.8073 20.7998 27.0938 21.5161 27.0938 22.3998C27.0938 23.2835 27.8073 23.9998 28.6875 23.9998Z" fill="#003B46"/>
<path d="M28.6875 30.4002C29.5677 30.4002 30.2812 29.6839 30.2812 28.8002C30.2812 27.9165 29.5677 27.2002 28.6875 27.2002C27.8073 27.2002 27.0938 27.9165 27.0938 28.8002C27.0938 29.6839 27.8073 30.4002 28.6875 30.4002Z" fill="#003B46"/>
<path d="M28.6875 36.8001C29.5677 36.8001 30.2812 36.0838 30.2812 35.2001C30.2812 34.3164 29.5677 33.6001 28.6875 33.6001C27.8073 33.6001 27.0938 34.3164 27.0938 35.2001C27.0938 36.0838 27.8073 36.8001 28.6875 36.8001Z" fill="#003B46"/>
<path d="M28.6875 43.2C29.5677 43.2 30.2812 42.4837 30.2812 41.6C30.2812 40.7163 29.5677 40 28.6875 40C27.8073 40 27.0938 40.7163 27.0938 41.6C27.0938 42.4837 27.8073 43.2 28.6875 43.2Z" fill="#003B46"/>
</g>
<defs>
<clipPath id="clip0">
<rect width="51" height="64" fill="white"/>
</clipPath>
</defs>
</svg>
