<svg width="224" height="230" viewBox="0 0 224 230" fill="none" xmlns="http://www.w3.org/2000/svg">
<path d="M137.639 74.2417C140.054 74.2417 142.057 76.2303 142.057 78.6273V89.2111L163.205 75.0018C163.559 74.7681 163.971 74.5923 164.384 74.4175C164.796 74.3007 165.267 74.2417 165.68 74.2417H201.437C203.617 74.2417 205.561 73.3648 207.034 71.9616C208.448 70.5583 209.331 68.6866 209.331 66.6402V21.733C209.272 17.5812 205.796 14.1315 201.437 14.1315H137.639C133.22 14.1315 129.803 17.5233 129.803 21.733V66.6402C129.804 70.7909 133.22 74.2417 137.639 74.2417ZM140.113 101.08C139.818 101.256 139.524 101.431 139.17 101.548C138.993 101.607 138.817 101.665 138.581 101.724C138.287 101.781 137.993 101.84 137.639 101.84C137.344 101.84 137.05 101.781 136.755 101.724C136.578 101.724 136.343 101.665 136.167 101.548C135.931 101.489 135.696 101.372 135.459 101.255C135.282 101.138 135.106 101.021 134.929 100.904C134.516 100.613 134.223 100.32 133.928 99.9108C133.751 99.6771 133.633 99.4434 133.575 99.1507C133.457 98.917 133.339 98.6244 133.28 98.3317C133.28 98.039 133.22 97.7475 133.22 97.4548V96.9874V82.4275C126.152 80.5558 120.968 74.1828 120.968 66.6402V21.733C120.968 12.6114 128.449 5.36035 137.639 5.36035H201.437C210.569 5.36035 218.108 12.6114 218.168 21.733V66.6402C218.108 75.7618 210.569 83.0128 201.437 83.0128H167.035L140.113 101.08Z" fill="#003B46"/>
<path d="M27.4678 98.6992C27.4678 98.4464 27.4678 100.722 28.7278 102.997C29.7358 105.272 32.2558 107.547 36.0358 108.558C36.2878 110.075 37.2958 113.614 39.0598 118.165C41.3278 123.979 45.3598 130.805 51.9118 135.861C52.4158 136.366 58.7158 142.434 69.8038 142.434C74.5918 142.434 79.8838 141.422 86.1838 138.389C86.1838 138.389 90.2158 136.366 94.7518 131.563C99.0358 126.76 103.824 119.429 105.84 108.811C106.848 108.811 108.36 108.306 110.124 107.294C112.392 105.778 114.66 103.25 115.416 98.4464C115.416 98.4464 115.416 95.9184 114.408 93.1376C113.904 91.8736 113.148 90.3568 111.888 89.3456C110.88 88.5872 109.62 87.8288 108.108 87.576H108.36L110.376 74.1776C111.888 53.448 97.5238 48.1392 97.5238 48.1392C97.2718 41.3136 91.2238 37.016 91.2238 37.016C79.6318 30.1904 55.4398 39.2912 55.4398 39.2912C36.7918 43.8416 32.5078 56.7344 32.5078 56.7344C26.7118 70.1328 32.5078 86.8176 33.0118 88.3344C32.5078 88.5872 31.7518 89.0928 30.9958 89.8512C29.4838 91.6208 27.4678 94.4016 27.4678 98.6992Z" fill="#003B46"/>
<path d="M111.384 184.398C113.889 184.398 115.92 182.361 115.92 179.848C115.92 177.335 113.889 175.297 111.384 175.297C108.878 175.297 106.848 177.335 106.848 179.848C106.848 182.361 108.878 184.398 111.384 184.398Z" fill="#003B46"/>
<path d="M114.912 154.315C114.66 154.315 114.66 154.062 114.408 154.062C113.652 153.81 112.896 153.304 112.14 153.051C109.116 151.787 105.84 150.776 102.816 149.765C109.62 157.096 112.644 170.242 113.148 172.517C116.424 173.275 118.944 176.309 118.944 179.848C118.944 184.146 115.668 187.432 111.384 187.432C107.1 187.432 103.824 184.146 103.824 179.848C103.824 176.309 106.344 173.275 109.62 172.517C107.1 158.36 99.288 149.765 98.028 148.501C95.76 147.995 93.744 147.49 91.476 147.237C88.452 149.765 86.184 151.029 86.184 151.029C79.884 154.062 74.592 155.074 69.804 155.074C58.716 155.074 52.416 149.006 51.912 148.501C51.66 148.248 51.408 147.995 51.156 147.742C48.384 148.248 45.864 148.754 43.596 149.259C41.328 151.787 35.28 159.624 33.012 171.506C41.58 173.528 47.628 192.741 47.628 192.741L43.848 197.038C44.1 197.544 44.1 197.797 44.1 198.302C44.1 200.072 42.588 201.842 40.572 201.842C38.808 201.842 37.044 200.325 37.044 198.302C37.044 196.28 38.556 194.763 40.572 194.763C40.824 194.763 41.076 194.763 41.328 194.763L44.1 191.73C30.744 153.557 19.656 191.982 19.656 192.488L21.672 194.763C21.924 194.763 22.176 194.763 22.428 194.763C24.192 194.763 25.956 196.28 25.956 198.302C25.956 200.325 24.444 201.842 22.428 201.842C20.412 201.842 18.9 200.325 18.9 198.302C18.9 197.797 18.9 197.291 19.152 197.038L15.372 192.741C20.412 178.837 25.2 173.022 29.484 171.758C30.24 167.966 33.264 157.349 39.06 150.523C36.288 151.282 33.768 152.04 32.004 152.546V152.293C32.004 152.293 30.24 152.798 27.72 154.062C20.16 157.602 5.04 166.702 0 184.651V211.954C0 211.954 59.22 250.632 143.388 211.954V185.157C143.388 185.157 140.364 165.944 114.912 154.315Z" fill="#003B46"/>
</svg>
