<svg id="Layer_1" data-name="Layer 1" xmlns="http://www.w3.org/2000/svg" viewBox="0 0 978.93 978.89"><defs><style>.cls-1{fill:#fff;}</style></defs><title>Error</title><path class="cls-1" d="M512,763.4c15.5,0,31.5-6.3,42.5-17.4,11.6-11.8,17.6-26.8,18.1-43.2a56.41,56.41,0,0,0-2.5-17.2,61.17,61.17,0,0,0-14.8-25.3,59.13,59.13,0,0,0-19.6-12.9c-7.7-3.3-14.9-5.2-23.6-5.2a71.43,71.43,0,0,0-16.6,2.3,61.22,61.22,0,0,0-25.8,15c-11.1,11.1-18.7,27.3-18.1,43.2.5,15.7,6,30.6,17,42,11.7,12.5,26.7,17.8,43.4,18.7,12.4.7,26.8-6.1,35.4-14.6,8.7-8.7,15.2-22.9,14.6-35.4-.6-12.9-4.8-26.3-14.6-35.4-10.1-9.2-21.6-13.9-35.4-14.6a4.87,4.87,0,0,1-1.2-.1l13.3,1.8a11.72,11.72,0,0,1-3.2-.9c4,1.7,8,3.4,11.9,5a11.78,11.78,0,0,1-1.9-1.1c3.4,2.6,6.7,5.2,10.1,7.8a12.52,12.52,0,0,1-2.3-2.3c2.6,3.4,5.2,6.7,7.8,10.1a11.78,11.78,0,0,1-1.1-1.9c1.7,4,3.4,8,5,11.9a19.16,19.16,0,0,1-.9-3.2c.6,4.4,1.2,8.9,1.8,13.3a8.85,8.85,0,0,1,0-2.3c-.6,4.4-1.2,8.9-1.8,13.3a11.72,11.72,0,0,1,.9-3.2c-1.7,4-3.4,8-5,11.9a11.78,11.78,0,0,1,1.1-1.9c-2.6,3.4-5.2,6.7-7.8,10.1a12.52,12.52,0,0,1,2.3-2.3c-3.4,2.6-6.7,5.2-10.1,7.8a11.78,11.78,0,0,1,1.9-1.1c-4,1.7-8,3.4-11.9,5a19.16,19.16,0,0,1,3.2-.9L510.8,742a8.85,8.85,0,0,1,2.3,0l-13.3-1.8a11.72,11.72,0,0,1,3.2.9c-4-1.7-8-3.4-11.9-5a11.78,11.78,0,0,1,1.9,1.1c-3.4-2.6-6.7-5.2-10.1-7.8a12.52,12.52,0,0,1,2.3,2.3c-2.6-3.4-5.2-6.7-7.8-10.1a11.78,11.78,0,0,1,1.1,1.9c-1.7-4-3.4-8-5-11.9a19.16,19.16,0,0,1,.9,3.2c-.6-4.4-1.2-8.9-1.8-13.3a8.85,8.85,0,0,1,0,2.3c.6-4.4,1.2-8.9,1.8-13.3a11.72,11.72,0,0,1-.9,3.2c1.7-4,3.4-8,5-11.9a11.78,11.78,0,0,1-1.1,1.9c2.6-3.4,5.2-6.7,7.8-10.1a12.52,12.52,0,0,1-2.3,2.3c3.4-2.6,6.7-5.2,10.1-7.8a11.78,11.78,0,0,1-1.9,1.1c4-1.7,8-3.4,11.9-5a19.16,19.16,0,0,1-3.2.9l13.3-1.8c-.4,0-.8.1-1.2.1A52.05,52.05,0,0,0,476.5,678c-8.7,8.7-15.2,22.9-14.6,35.4.6,12.9,4.8,26.3,14.6,35.4C486.4,757.7,498.5,763.4,512,763.4Z" transform="translate(-22.57 -22.44)"/><path class="cls-1" d="M462,291.7V554.5a52.05,52.05,0,0,0,14.6,35.4c8.7,8.7,22.9,15.2,35.4,14.6,12.9-.6,26.3-4.8,35.4-14.6S562,568.1,562,554.5V291.7a52.05,52.05,0,0,0-14.6-35.4c-8.7-8.7-22.9-15.2-35.4-14.6-12.9.6-26.3,4.8-35.4,14.6-8.9,9.8-14.6,21.8-14.6,35.4Z" transform="translate(-22.57 -22.44)"/><path class="cls-1" d="M901.5,512a458.15,458.15,0,0,1-4,59.7c.6-4.4,1.2-8.9,1.8-13.3a440.71,440.71,0,0,1-30.1,110.4c1.7-4,3.4-8,5-11.9a441,441,0,0,1-57,97.8c2.6-3.4,5.2-6.7,7.8-10.1A446.67,446.67,0,0,1,744.6,825c3.4-2.6,6.7-5.2,10.1-7.8a445,445,0,0,1-97.8,57c4-1.7,8-3.4,11.9-5a440.71,440.71,0,0,1-110.4,30.1l13.3-1.8a451.05,451.05,0,0,1-119.5,0l13.3,1.8a440.71,440.71,0,0,1-110.4-30.1c4,1.7,8,3.4,11.9,5a441,441,0,0,1-97.8-57c3.4,2.6,6.7,5.2,10.1,7.8a446.67,446.67,0,0,1-80.4-80.4c2.6,3.4,5.2,6.7,7.8,10.1a445,445,0,0,1-57-97.8c1.7,4,3.4,8,5,11.9a440.71,440.71,0,0,1-30.1-110.4c.6,4.4,1.2,8.9,1.8,13.3a451.05,451.05,0,0,1,0-119.5c-.6,4.4-1.2,8.9-1.8,13.3a440.71,440.71,0,0,1,30.1-110.4c-1.7,4-3.4,8-5,11.9a441,441,0,0,1,57-97.8c-2.6,3.4-5.2,6.7-7.8,10.1a446.67,446.67,0,0,1,80.4-80.4c-3.4,2.6-6.7,5.2-10.1,7.8a445,445,0,0,1,97.8-57c-4,1.7-8,3.4-11.9,5a440.71,440.71,0,0,1,110.4-30.1l-13.3,1.8a451.05,451.05,0,0,1,119.5,0l-13.3-1.8a440.71,440.71,0,0,1,110.4,30.1c-4-1.7-8-3.4-11.9-5a441,441,0,0,1,97.8,57c-3.4-2.6-6.7-5.2-10.1-7.8A446.67,446.67,0,0,1,825,279.3c-2.6-3.4-5.2-6.7-7.8-10.1a445,445,0,0,1,57,97.8c-1.7-4-3.4-8-5-11.9a440.71,440.71,0,0,1,30.1,110.4c-.6-4.4-1.2-8.9-1.8-13.3a479.2,479.2,0,0,1,4,59.8,52.05,52.05,0,0,0,14.6,35.4c8.7,8.7,22.9,15.2,35.4,14.6,12.9-.6,26.3-4.8,35.4-14.6s14.7-21.8,14.6-35.4c-.1-50.2-7.6-101.2-23.1-149-15.1-46.4-36.7-91.2-65-131a532.65,532.65,0,0,0-49.7-60.5c-18.1-18.7-37.8-35.2-58.4-51-39-29.9-82.5-52.5-128.5-69.4-47-17.3-97.3-26.3-147.2-28.3A489.07,489.07,0,0,0,378.4,40.9c-46.7,13.3-92.3,33.7-132.9,60.4-40.4,26.6-77.5,58.7-108.3,96-16.5,20-32,41-45.3,63.2-13.6,22.7-24.7,46.6-34.7,71-19.1,46.5-29.5,96-33.3,146.1-3.9,50.6.9,102.3,12.8,151.6A482.33,482.33,0,0,0,93,765a488,488,0,0,0,92,111c36.3,32.2,77,59.9,121.3,79.9,24.1,10.9,48.7,20.5,74.1,27.6,26.3,7.3,53,11.8,80.1,14.9,50.7,5.9,102.3,2.6,152.2-7.5,48.2-9.7,95.2-27.7,138.1-51.7a487.14,487.14,0,0,0,114.1-88.3c33.4-34.9,62.4-75.1,83.9-118.4,22-44.2,38.2-91.4,45.7-140.2,4.1-26.7,6.9-53.5,6.9-80.5a52.05,52.05,0,0,0-14.6-35.4c-8.7-8.7-22.9-15.2-35.4-14.6-12.9.6-26.3,4.8-35.4,14.6C907.1,486.4,901.5,498.4,901.5,512Z" transform="translate(-22.57 -22.44)"/></svg>