<svg width="63" height="61" viewBox="0 0 63 61" fill="none" xmlns="http://www.w3.org/2000/svg">
<g filter="url(#filter0_d)">
<path d="M30.6163 12.8109L31.5 14.4794L32.3837 12.8109C34.4991 8.81707 38.4138 4.60938 44.3906 4.60938C52.0311 4.60938 58 10.9139 58 19.4981C58 21.4925 57.6496 23.3488 56.9942 25.1406H46.0096L43.507 20.0443L43.5065 20.0432C43.0282 19.0722 42.0435 18.6511 41.168 18.6511C40.2925 18.6511 39.3077 19.0722 38.8295 20.0432L38.829 20.0443L34.7227 28.4062L33.839 26.6068L33.8385 26.6057C33.3602 25.6347 32.3755 25.2136 31.5 25.2136C30.6245 25.2136 29.6398 25.6347 29.1615 26.6057L29.161 26.6068L28.2773 28.4062L24.171 20.0442L24.1705 20.0431C23.6923 19.0721 22.7075 18.651 21.832 18.651C20.9565 18.651 19.9718 19.0721 19.4935 20.0431L19.493 20.0442L16.9904 25.1406H6.00576C5.35041 23.3488 5 21.4925 5 19.4981C5 10.9139 10.9689 4.60938 18.6094 4.60938C24.5862 4.60938 28.5009 8.81697 30.6163 12.8109Z" stroke="white" stroke-width="2"/>
<path d="M42.0521 28.9568L42.0516 28.9558L41.1679 27.1563L37.0616 35.5183L37.0611 35.5193C36.6225 36.4097 35.7222 36.9843 34.7226 36.9843C33.723 36.9843 32.8226 36.4097 32.3841 35.5193L32.3836 35.5183L31.4999 33.7188L30.6163 35.5183L30.6158 35.5193C30.1375 36.4904 29.1528 36.9114 28.2773 36.9114C27.4018 36.9114 26.417 36.4904 25.9388 35.5193L25.9383 35.5183L21.832 27.1563L20.9483 28.9558L20.9478 28.9568C20.5093 29.8472 19.6089 30.4218 18.6093 30.4218H8.89398C12.143 34.8928 17.308 39.3298 23.7859 44.8948C23.9971 45.0763 24.2098 45.259 24.4238 45.4429C26.5207 47.2447 28.7566 49.1665 31.105 51.2397C31.2213 51.3422 31.3608 51.3906 31.4998 51.3906C31.6387 51.3906 31.778 51.3423 31.8943 51.24C31.8944 51.2399 31.8945 51.2398 31.8946 51.2397L32.5557 51.9901C34.8988 49.9217 37.13 48.0039 39.2275 46.2014C39.4731 45.9903 39.7171 45.7808 39.9594 45.5726C46.6249 39.8474 52.0339 35.2013 55.3307 30.4218L42.0521 28.9568ZM42.0521 28.9568C42.4906 29.8472 43.391 30.4218 44.3906 30.4218H54.1057L42.0521 28.9568Z" stroke="white" stroke-width="2"/>
</g>
<defs>
<filter id="filter0_d" x="0" y="0" width="63" height="64" filterUnits="userSpaceOnUse" color-interpolation-filters="sRGB">
<feFlood flood-opacity="0" result="BackgroundImageFix"/>
<feColorMatrix in="SourceAlpha" type="matrix" values="0 0 0 0 0 0 0 0 0 0 0 0 0 0 0 0 0 0 127 0"/>
<feOffset dy="4"/>
<feGaussianBlur stdDeviation="2"/>
<feColorMatrix type="matrix" values="0 0 0 0 0 0 0 0 0 0 0 0 0 0 0 0 0 0 0.25 0"/>
<feBlend mode="normal" in2="BackgroundImageFix" result="effect1_dropShadow"/>
<feBlend mode="normal" in="SourceGraphic" in2="effect1_dropShadow" result="shape"/>
</filter>
</defs>
</svg>
