<svg width="102" height="83" viewBox="0 0 102 83" fill="none" xmlns="http://www.w3.org/2000/svg">
<g filter="url(#filter0_d)">
<path d="M50.9998 15.1006L17.4748 42.7384C17.4748 42.7774 17.465 42.8348 17.4454 42.913C17.4262 42.9906 17.416 43.047 17.416 43.087V71.0732C17.416 72.0837 17.7854 72.9594 18.5241 73.6968C19.2626 74.4346 20.137 74.8059 21.1477 74.8059H43.5361V52.4163H58.4638V74.8067H80.852C81.8625 74.8067 82.7382 74.4363 83.4756 73.6968C84.2142 72.9602 84.5849 72.0839 84.5849 71.0732V43.087C84.5849 42.9318 84.5637 42.8146 84.5261 42.7384L50.9998 15.1006Z" fill="#C4DFE6"/>
<path d="M97.3526 36.4415L84.5845 25.8299V2.04116C84.5845 1.49733 84.4097 1.05009 84.0588 0.700059C83.7108 0.350438 83.2636 0.175627 82.7185 0.175627H71.5241C70.9797 0.175627 70.5326 0.350438 70.1824 0.700059C69.833 1.05009 69.6584 1.49753 69.6584 2.04116V13.4106L55.4322 1.51591C54.1897 0.505235 52.7124 0 51.0019 0C49.2915 0 47.8144 0.505235 46.5708 1.51591L4.64789 36.4415C4.25927 36.7519 4.04627 37.1697 4.00665 37.6945C3.96723 38.219 4.10304 38.677 4.41447 39.0654L8.02933 43.3802C8.34076 43.7298 8.74838 43.9436 9.25382 44.0218C9.72046 44.061 10.1871 43.9246 10.6537 43.6138L51.0006 9.97053L91.348 43.6136C91.6596 43.8848 92.067 44.0202 92.5724 44.0202H92.7477C93.2523 43.9434 93.6591 43.7281 93.9722 43.3793L97.5874 39.0652C97.8982 38.676 98.0345 38.2188 97.994 37.6937C97.9542 37.1703 97.7404 36.7525 97.3526 36.4415Z" fill="#C4DFE6"/>
</g>
<defs>
<filter id="filter0_d" x="0" y="0" width="102.001" height="82.8067" filterUnits="userSpaceOnUse" color-interpolation-filters="sRGB">
<feFlood flood-opacity="0" result="BackgroundImageFix"/>
<feColorMatrix in="SourceAlpha" type="matrix" values="0 0 0 0 0 0 0 0 0 0 0 0 0 0 0 0 0 0 127 0"/>
<feOffset dy="4"/>
<feGaussianBlur stdDeviation="2"/>
<feColorMatrix type="matrix" values="0 0 0 0 0 0 0 0 0 0 0 0 0 0 0 0 0 0 0.25 0"/>
<feBlend mode="normal" in2="BackgroundImageFix" result="effect1_dropShadow"/>
<feBlend mode="normal" in="SourceGraphic" in2="effect1_dropShadow" result="shape"/>
</filter>
</defs>
</svg>
