<svg width="56" height="59" viewBox="0 0 56 59" fill="none" xmlns="http://www.w3.org/2000/svg">
<g filter="url(#filter0_d)">
<g clip-path="url(#clip0)">
<path d="M23.5428 23.8677C24.0343 23.8677 24.4335 23.4448 24.4335 22.9214V19.4608C24.4335 19.3195 24.4225 19.1806 24.4137 19.0425L24.688 19.3339C24.8619 19.5184 25.0897 19.611 25.3175 19.611C25.5457 19.611 25.7734 19.5184 25.9474 19.3339L26.2356 19.0273C26.2261 19.1713 26.2151 19.3149 26.2151 19.4616V22.9226C26.2151 23.4456 26.6143 23.8685 27.1057 23.8685H30.3628C33.4767 23.8685 36.0101 21.1771 36.0101 17.8694V14.4076C36.0101 13.8842 35.611 13.4613 35.1195 13.4613H31.8624C31.1252 13.4613 30.4225 13.6165 29.7761 13.8912C30.1573 11.9714 29.6516 9.89012 28.2509 8.40181L25.9474 5.95399C25.5991 5.58435 25.0363 5.58435 24.6884 5.95399L22.3838 8.40065C20.9849 9.88701 20.4784 11.9656 20.8578 13.8834C20.2155 13.6126 19.5186 13.4593 18.7865 13.4593H15.5291C15.0376 13.4593 14.6384 13.8823 14.6384 14.4056V17.8674C14.6384 21.1748 17.1719 23.8666 20.2858 23.8666H23.5428V23.8677ZM34.2281 15.3527V17.8682C34.2281 20.1332 32.4934 21.9751 30.3621 21.9751H27.9952V19.4604C27.9952 17.1947 29.7296 15.3527 31.8613 15.3527H34.2281ZM23.6428 9.73876L25.3168 7.9598L26.9907 9.73876C28.4973 11.3395 28.4973 13.9457 26.9907 15.5476L25.3168 17.3262L23.6428 15.5476C22.1359 13.9461 22.1359 11.3395 23.6428 9.73876ZM16.4197 17.8686V15.3527H18.7865C20.9178 15.3527 22.6526 17.1947 22.6526 19.4608V21.9755H20.2858C18.1541 21.9751 16.4197 20.1324 16.4197 17.8686Z" fill="white"/>
<path d="M27.9952 31.2207C26.5223 31.2207 25.3237 32.4942 25.3237 34.0592H27.1046C27.1046 33.537 27.5045 33.1129 27.9952 33.1129C28.4856 33.1129 28.8855 33.537 28.8855 34.0592H30.6664C30.6664 32.4942 29.4681 31.2207 27.9952 31.2207Z" fill="white"/>
<path d="M35.1188 32.167C33.6459 32.167 32.4473 33.4401 32.4473 35.0051H34.2281C34.2281 34.4829 34.6281 34.0592 35.1188 34.0592C35.6091 34.0592 36.009 34.4829 36.009 35.0051H37.7899C37.7899 33.4401 36.5913 32.167 35.1188 32.167Z" fill="white"/>
<path d="M41.8101 28.5699L44.8829 16.3277C44.9027 16.2479 44.9133 16.1658 44.9133 16.0837C44.9133 15.0402 44.1146 14.1912 43.1324 14.1912H41.3516C41.0264 14.1912 40.7239 14.2896 40.4609 14.4515V0.946286C40.4609 0.422949 40.0621 0 39.5703 0H11.9724C11.968 0 11.9636 0.00272369 11.9592 0.00272369C11.9548 0.00272369 11.9504 0 11.946 0H5.73401C5.24255 0 4.84375 0.422949 4.84375 0.946286V44.4661C4.84375 44.8435 5.05579 45.1863 5.38244 45.3357L11.5941 48.1738C11.7073 48.2248 11.8266 48.2505 11.946 48.2505C11.9511 48.2505 11.9566 48.2489 11.9621 48.2489C11.9654 48.2489 11.9691 48.2505 11.9728 48.2505H25.6089C28.1893 49.982 31.2343 50.9998 34.506 50.9998C43.729 50.9998 51.2337 43.0272 51.2337 33.2278V33.1293C51.2337 30.3053 45.7362 29.0827 41.8101 28.5699ZM41.3516 16.0834H43.1013L39.8237 29.1442V29.1458C39.8237 29.1477 39.8226 29.1489 39.8226 29.1489L39.292 31.3142C39.1682 31.8196 39.4531 32.336 39.9296 32.4687C40.0043 32.4885 40.0801 32.499 40.1541 32.499C40.5492 32.499 40.9107 32.2169 41.015 31.7912L41.3508 30.4212C47.4288 31.1827 49.4529 32.6776 49.4529 33.1301C49.4529 34.0608 44.3677 36.2456 34.506 36.2456C24.6447 36.2456 19.5595 34.0612 19.5595 33.1301C19.5595 32.1982 24.6447 30.0138 34.506 30.0138C35.0334 30.0138 35.538 30.0356 36.051 30.0496L35.8844 30.7535C35.7643 31.2609 36.0536 31.7745 36.5311 31.9021C36.604 31.922 36.6769 31.9305 36.749 31.9305C37.1471 31.9305 37.5097 31.6438 37.6122 31.2154L38.0484 29.3742L41.3226 16.3273C41.3417 16.2479 41.3516 16.1658 41.3516 16.0834ZM11.0554 45.8672L6.62463 43.8428V1.89218H11.0554V45.8672ZM23.2436 46.3583H12.863V1.89218H38.6804V19.5074L36.5095 28.1575C35.8533 28.1357 35.1864 28.1213 34.506 28.1213C28.7199 28.1213 17.7783 29.1679 17.7783 33.1301V33.2282C17.7783 33.8527 17.8101 34.4694 17.8698 35.0772C17.8878 35.2577 17.9244 35.4336 17.9475 35.6133C18.0009 36.0375 18.0544 36.4612 18.1364 36.8748C18.1826 37.1102 18.2503 37.3371 18.3045 37.5701C18.3873 37.9184 18.4649 38.2674 18.5664 38.6071C18.6473 38.8775 18.7491 39.1386 18.8414 39.4035C18.9421 39.6911 19.0373 39.9825 19.1516 40.2623C19.268 40.5491 19.4035 40.8265 19.5343 41.1062C19.6492 41.3525 19.7595 41.6012 19.8851 41.8405C20.0338 42.1253 20.1986 42.3988 20.3615 42.6739C20.4934 42.8965 20.6234 43.1206 20.764 43.3362C20.9368 43.6004 21.121 43.8537 21.3071 44.1081C21.4656 44.3249 21.6242 44.5408 21.7916 44.7486C21.9758 44.9778 22.1691 45.1992 22.3651 45.4194C22.5628 45.6416 22.7631 45.8583 22.9715 46.0696C23.0663 46.1626 23.1484 46.2665 23.2436 46.3583ZM34.5067 49.1077C31.4632 49.1077 28.6327 48.131 26.2685 46.4653C26.1553 46.3859 26.0466 46.3007 25.9363 46.2182C25.6815 46.0283 25.4313 45.8303 25.1885 45.6244C25.1003 45.5497 25.0095 45.4766 24.923 45.3992C24.6059 45.1175 24.2997 44.8221 24.0068 44.5136C23.9522 44.456 23.8998 44.3972 23.8464 44.3389C23.5571 44.0256 23.2773 43.7031 23.014 43.365C22.9979 43.3451 22.981 43.3253 22.9656 43.3054C22.6807 42.9373 22.4127 42.5552 22.16 42.1607C22.1296 42.1136 22.0996 42.065 22.0699 42.0167C21.5759 41.2296 21.1474 40.3934 20.7896 39.5164C20.7603 39.4436 20.7299 39.3705 20.7014 39.2977C20.534 38.8709 20.3817 38.4351 20.2498 37.9903C20.233 37.9343 20.2198 37.8767 20.2037 37.8211C20.088 37.4168 19.9891 37.0044 19.9045 36.5873C19.8876 36.504 19.8679 36.4215 19.8518 36.3375C19.8107 36.1207 19.7895 35.8986 19.7565 35.6791C23.1762 37.5655 30.2408 38.1359 34.5056 38.1359C38.772 38.1359 45.8358 37.5655 49.2547 35.6791C48.1404 43.2731 41.9617 49.1077 34.5067 49.1077Z" fill="white"/>
</g>
</g>
<defs>
<filter id="filter0_d" x="0" y="0" width="56" height="59" filterUnits="userSpaceOnUse" color-interpolation-filters="sRGB">
<feFlood flood-opacity="0" result="BackgroundImageFix"/>
<feColorMatrix in="SourceAlpha" type="matrix" values="0 0 0 0 0 0 0 0 0 0 0 0 0 0 0 0 0 0 127 0"/>
<feOffset dy="4"/>
<feGaussianBlur stdDeviation="2"/>
<feColorMatrix type="matrix" values="0 0 0 0 0 0 0 0 0 0 0 0 0 0 0 0 0 0 0.25 0"/>
<feBlend mode="normal" in2="BackgroundImageFix" result="effect1_dropShadow"/>
<feBlend mode="normal" in="SourceGraphic" in2="effect1_dropShadow" result="shape"/>
</filter>
<clipPath id="clip0">
<rect x="4" width="48" height="51" fill="white"/>
</clipPath>
</defs>
</svg>
