<svg width="36" height="36" viewBox="0 0 36 36" fill="none" xmlns="http://www.w3.org/2000/svg">
<path d="M18.0002 24.9225C19.9043 24.9225 21.5338 24.2446 22.8895 22.8894C24.245 21.5342 24.9228 19.9039 24.9228 18V6.92327C24.9228 5.01932 24.2455 3.38968 22.8895 2.03383C21.5338 0.67827 19.9043 0 18.0002 0C16.0963 0 14.4666 0.67827 13.1108 2.03383C11.755 3.38946 11.0771 5.01932 11.0771 6.92327V18C11.0771 19.9038 11.7553 21.5342 13.1108 22.8894C14.4664 24.2446 16.0963 24.9225 18.0002 24.9225Z" fill="black"/>
<path d="M30.0498 14.2574C29.7765 13.9833 29.4513 13.8462 29.0763 13.8462C28.7016 13.8462 28.3772 13.9833 28.1028 14.2574C27.829 14.5314 27.692 14.8558 27.692 15.2307V18.0001C27.692 20.6684 26.7434 22.9507 24.8468 24.8473C22.9507 26.744 20.6681 27.6923 17.9997 27.6923C15.3313 27.6923 13.0489 26.744 11.1522 24.8473C9.25565 22.9513 8.30747 20.6685 8.30747 18.0001V15.2307C8.30747 14.8558 8.17039 14.5314 7.89646 14.2574C7.62238 13.9833 7.29821 13.8462 6.92297 13.8462C6.54772 13.8462 6.22318 13.9833 5.94925 14.2574C5.67509 14.5314 5.53809 14.8558 5.53809 15.2307V18.0001C5.53809 21.1876 6.60198 23.9605 8.72916 26.3184C10.8564 28.6764 13.485 30.0285 16.615 30.3744V33.2305H11.0766C10.7016 33.2305 10.3771 33.3677 10.1031 33.6418C9.82905 33.9157 9.69197 34.2403 9.69197 34.6153C9.69197 34.9897 9.82905 35.3149 10.1031 35.5888C10.3771 35.8627 10.7016 36.0001 11.0766 36.0001H24.9223C25.2973 36.0001 25.6222 35.8627 25.8958 35.5888C26.1702 35.315 26.3074 34.9898 26.3074 34.6153C26.3074 34.2404 26.1702 33.9157 25.8958 33.6418C25.6223 33.3677 25.2973 33.2305 24.9223 33.2305H19.3846V30.3744C22.5141 30.0285 25.1424 28.6764 27.2699 26.3184C29.3974 23.9605 30.4616 21.1876 30.4616 18.0001V15.2307C30.4616 14.8559 30.3242 14.5317 30.0498 14.2574Z" fill="black"/>
</svg>
