<svg width="26" height="26" viewBox="0 0 26 26" fill="none" xmlns="http://www.w3.org/2000/svg">
<g clip-path="url(#clip0)">
<path d="M20.3771 13.6502V9.75276C20.3957 6.7814 18.3976 4.8106 16.6808 4.02583C16.1889 3.80093 15.6819 3.6276 15.1667 3.4989V3.25016C15.1667 2.05546 14.1947 1.0835 13 1.0835C11.8053 1.0835 10.8334 2.05546 10.8334 3.25016V3.5366C10.3693 3.66183 9.91296 3.8252 9.47009 4.02973C7.57296 4.9042 5.65069 7.01193 5.63336 9.75016V13.6502C5.63336 16.4183 4.65576 18.7934 2.72786 20.7096C2.61303 20.824 2.57143 20.9926 2.61996 21.1473C2.66849 21.302 2.79979 21.4164 2.95969 21.4441L7.07246 22.1543C7.83859 22.2865 8.54406 22.3948 9.21529 22.4841C9.97146 23.9661 11.4565 24.9173 13.0789 24.9173C14.7017 24.9173 16.1872 23.9657 16.9429 22.4828C17.6116 22.394 18.3136 22.2861 19.0754 22.1543L23.1877 21.4441C23.3476 21.4168 23.4785 21.302 23.5274 21.1473C23.5764 20.993 23.5348 20.824 23.4195 20.7096C21.4011 18.7028 20.3771 16.3277 20.3771 13.6502ZM11.7 3.25016C11.7 2.53343 12.2833 1.95016 13 1.95016C13.7168 1.95016 14.3 2.53343 14.3 3.25016V3.32903C13.4364 3.2051 12.5602 3.2103 11.7 3.3494V3.25016ZM13.0793 24.0502C11.9821 24.0502 10.9569 23.505 10.2986 22.6137C11.2671 22.7133 12.1711 22.7636 13.0746 22.7636C13.9815 22.7636 14.8885 22.7133 15.8609 22.6124C15.2022 23.5046 14.1765 24.0502 13.0793 24.0502ZM18.9285 21.2998C18.0969 21.4432 17.3347 21.5598 16.6145 21.6517C16.6136 21.6517 16.6127 21.6517 16.6114 21.6517C16.2938 21.692 15.9853 21.7271 15.6832 21.7574C15.6806 21.7574 15.6785 21.7578 15.6759 21.7578C15.399 21.7856 15.1286 21.8081 14.8608 21.8272C14.8105 21.8306 14.7602 21.8341 14.7104 21.8371C14.4786 21.8523 14.2493 21.8644 14.0214 21.8731C13.975 21.8748 13.9282 21.8774 13.8819 21.8787C13.3428 21.8969 12.8111 21.8969 12.2725 21.8792C12.2244 21.8774 12.1758 21.8748 12.1277 21.8731C11.9037 21.864 11.6779 21.8527 11.4496 21.8376C11.3954 21.8341 11.3412 21.8306 11.2866 21.8267C11.0271 21.8081 10.7645 21.7864 10.4962 21.7596C10.4863 21.7587 10.4767 21.7578 10.4668 21.757C10.1669 21.7271 9.86096 21.692 9.54636 21.6521C9.54506 21.6521 9.54376 21.6521 9.54246 21.6521C8.81966 21.5607 8.05439 21.4432 7.21936 21.2994L3.90003 20.7265C5.62599 18.7531 6.50003 16.3767 6.50003 13.6502V9.75276C6.51476 7.3976 8.18483 5.57673 9.83279 4.81666C10.3229 4.5909 10.8312 4.42233 11.3482 4.30403C11.3525 4.30316 11.3573 4.3036 11.3616 4.30273C12.4298 4.06266 13.566 4.05183 14.6463 4.27326C14.6519 4.27456 14.6575 4.27196 14.6632 4.27283C15.2282 4.3907 15.7846 4.56923 16.3207 4.81406C17.9192 5.5451 19.5256 7.35383 19.5104 9.7506V13.6506C19.5104 16.2649 20.4529 18.6959 22.2461 20.7274L18.9285 21.2998Z" fill="white"/>
<path d="M15.7806 5.99669C14.1014 5.22926 12.0453 5.22839 10.3774 5.99756C9.42619 6.43609 7.81289 7.71919 7.79989 9.74762C7.79859 9.98682 7.99099 10.1818 8.23062 10.1836C8.23149 10.1836 8.23235 10.1836 8.23322 10.1836C8.47112 10.1836 8.66525 9.99159 8.66655 9.75282C8.67652 8.15946 9.97479 7.13766 10.7401 6.78449C12.1831 6.11846 13.9667 6.12019 15.4196 6.78449C15.6376 6.88416 15.8946 6.78839 15.9942 6.57086C16.0939 6.35289 15.9977 6.09592 15.7806 5.99669Z" fill="white"/>
<path d="M2.08085 9.87707C1.91142 9.70764 1.63755 9.70764 1.46812 9.87707C0.521287 10.8239 -1.33514e-05 12.084 -1.33514e-05 13.4261C-1.33514e-05 14.7681 0.521287 16.0287 1.46812 16.9751C1.55262 17.0596 1.66355 17.102 1.77449 17.102C1.88542 17.102 1.99635 17.0596 2.08085 16.9751C2.25029 16.8056 2.25029 16.5318 2.08085 16.3623C1.29782 15.5793 0.866653 14.5367 0.866653 13.4261C0.866653 12.3154 1.29782 11.2724 2.08085 10.4898C2.24985 10.3204 2.24985 10.0465 2.08085 9.87707Z" fill="white"/>
<path d="M3.59875 16.1158C3.70969 16.1158 3.82062 16.0733 3.90512 15.9888C4.07455 15.8194 4.07455 15.5455 3.90512 15.3761C2.79665 14.2676 2.79665 12.4645 3.90512 11.3565C4.07455 11.1871 4.07455 10.9132 3.90512 10.7438C3.73569 10.5743 3.46182 10.5743 3.29239 10.7438C1.84635 12.1898 1.84635 14.5432 3.29239 15.9888C3.37689 16.0738 3.48782 16.1158 3.59875 16.1158Z" fill="white"/>
<path d="M24.5319 9.87707C24.3625 9.70764 24.0886 9.70764 23.9192 9.87707C23.7498 10.0465 23.7498 10.3204 23.9192 10.4898C24.7022 11.2728 25.1334 12.3154 25.1334 13.4261C25.1334 14.5367 24.7022 15.5793 23.9192 16.3623C23.7498 16.5318 23.7498 16.8056 23.9192 16.9751C24.0037 17.0596 24.1146 17.102 24.2256 17.102C24.3365 17.102 24.4474 17.0596 24.5319 16.9751C25.4788 16.0287 26.0001 14.7681 26.0001 13.4261C26.0001 12.084 25.4788 10.8239 24.5319 9.87707Z" fill="white"/>
<path d="M22.0949 10.7438C21.9254 10.9132 21.9254 11.1871 22.0949 11.3565C23.2033 12.465 23.2033 14.2681 22.0949 15.3761C21.9254 15.5455 21.9254 15.8194 22.0949 15.9888C22.1794 16.0733 22.2903 16.1158 22.4012 16.1158C22.5122 16.1158 22.6231 16.0733 22.7076 15.9888C24.1536 14.5428 24.1536 12.1894 22.7076 10.7438C22.5382 10.5743 22.2639 10.5743 22.0949 10.7438Z" fill="white"/>
</g>
<defs>
<clipPath id="clip0">
<rect width="26" height="26" fill="white"/>
</clipPath>
</defs>
</svg>
