<svg width="100" height="125" viewBox="0 0 100 125" fill="none" xmlns="http://www.w3.org/2000/svg">
<path d="M76.6108 49.8018L81.5571 49.0732C80.3833 41.3694 76.7782 34.2423 71.268 28.7319C65.7577 23.2215 58.6306 19.6163 50.9268 18.4424L50.1982 23.3897C56.8411 24.4019 62.9867 27.5105 67.7382 32.2619C72.4898 37.0133 75.5985 43.1589 76.6108 49.8018Z" fill="#003B46"/>
<path d="M52.835 5L52.291 9.9707C61.9192 11.0743 70.8902 15.4051 77.7429 22.2579C84.5956 29.1107 88.9263 38.0818 90.0298 47.71L95.0005 47.165C93.7673 36.4076 88.9285 26.3845 81.272 18.7281C73.6155 11.0717 63.5924 6.23301 52.835 5Z" fill="#003B46"/>
<path d="M74.4901 61.4339C70.8685 61.3879 66.1022 67.1379 64.1495 69.715C64.0271 69.8776 63.8733 70.0141 63.6974 70.1164C63.5214 70.2188 63.3267 70.2849 63.1248 70.3109C62.9229 70.3369 62.7179 70.3223 62.5217 70.2679C62.3255 70.2136 62.1422 70.1205 61.9825 69.9943C54.8175 64.3675 35.6324 45.1825 30.0058 38.0175C29.8795 37.8578 29.7865 37.6745 29.7321 37.4783C29.6777 37.2821 29.6631 37.077 29.6891 36.8751C29.7151 36.6732 29.7813 36.4786 29.8836 36.3026C29.986 36.1266 30.1225 35.9729 30.2851 35.8505C32.8621 33.8978 38.6122 29.1315 38.5662 25.5099C38.497 20.0763 24.4954 4.82531 18.0578 5.00151C14.7086 5.09319 7.70751 10.7012 6.13671 15.0874C-4.02577 43.4642 56.5359 104.026 84.9126 93.8633C89.2988 92.2925 94.9068 85.2913 94.9985 81.9423C95.1747 75.5046 79.9237 61.503 74.4901 61.4339Z" fill="#003B46"/>
</svg>
