<svg width="348" height="348" viewBox="0 0 348 348" fill="none" xmlns="http://www.w3.org/2000/svg">
<path d="M141.375 135.938C144.378 135.938 146.812 133.503 146.812 130.5C146.812 127.497 144.378 125.062 141.375 125.062C138.372 125.062 135.938 127.497 135.938 130.5C135.938 133.503 138.372 135.938 141.375 135.938Z" fill="#07575B"/>
<path d="M206.625 135.938C209.628 135.938 212.062 133.503 212.062 130.5C212.062 127.497 209.628 125.062 206.625 125.062C203.622 125.062 201.188 127.497 201.188 130.5C201.188 133.503 203.622 135.938 206.625 135.938Z" fill="#07575B"/>
<path d="M267.106 257.128L211.323 234.307C209.338 233.497 207.615 232.306 206.146 230.876C215.118 229.278 224.101 227.054 232.953 224.204C252.98 217.761 266.438 199.094 266.438 177.768V97.875C266.438 46.9039 224.971 5.4375 174 5.4375C123.029 5.4375 81.5625 46.9039 81.5625 97.875V177.768C81.5625 199.094 95.0203 217.761 115.047 224.21C123.899 227.054 132.882 229.283 141.853 230.882C140.38 232.312 138.656 233.503 136.672 234.313L80.8883 257.134C48.2687 270.472 27.1875 301.879 27.1875 337.125V342.562H320.812V337.125C320.812 301.879 299.731 270.472 267.106 257.128ZM174 217.185C138.145 204.434 114.188 170.596 114.188 132.409V99.9358C124.736 109.158 138.102 114.188 152.25 114.188H157.688V104.15C167.23 110.675 178.497 114.188 190.312 114.188H195.75V104.15C205.293 110.675 216.559 114.188 228.375 114.188H233.812V132.409C233.812 170.596 209.855 204.439 174 217.185ZM157.492 221.828C162.19 224.275 167.127 226.379 172.276 228.092L174 228.669L175.718 228.098C180.868 226.379 185.805 224.281 190.503 221.834C190.949 226.494 192.52 230.871 195.081 234.606C189.948 240.968 182.309 244.688 174 244.688C165.691 244.688 158.052 240.968 152.913 234.596C155.474 230.865 157.046 226.488 157.492 221.828ZM92.4375 177.768V97.875C92.4375 52.9014 129.026 16.3125 174 16.3125C218.974 16.3125 255.562 52.9014 255.562 97.875V177.768C255.562 194.358 245.139 208.86 229.62 213.851C220.268 216.858 210.763 219.104 201.296 220.632C201.253 220.159 201.188 219.691 201.188 219.207V215.303C227.945 196.81 244.688 166.154 244.688 132.409V103.312H228.375C215.803 103.312 203.982 98.4188 195.092 89.523L184.875 79.3386V103.008C174.353 101.806 164.62 97.1246 157.024 89.523L146.812 79.3386V103.008C136.291 101.806 126.558 97.1246 118.962 89.523L116.433 87H103.312V132.409C103.312 166.154 120.055 196.816 146.812 215.303V219.207C146.812 219.691 146.747 220.159 146.704 220.632C137.237 219.104 127.732 216.858 118.38 213.851C102.861 208.86 92.4375 194.358 92.4375 177.768ZM140.799 244.372C142.316 243.752 143.724 242.969 145.078 242.116C152.245 250.604 162.657 255.562 174 255.562C185.343 255.562 195.755 250.604 202.928 242.116C204.276 242.969 205.684 243.752 207.207 244.372L226.129 252.115C219.055 264.681 207.587 274.436 193.939 279.27L190.312 280.553V331.688H157.688V280.553L154.066 279.275C140.413 274.436 128.95 264.687 121.876 252.121L140.799 244.372ZM85.0153 267.199L111.773 256.253C119.451 270.526 131.859 281.875 146.812 288.128V331.688H92.4375V299.062H81.5625V331.688H38.2528C40.281 303.113 58.1812 278.172 85.0153 267.199ZM266.438 331.688V299.062H255.562V331.688H201.188V288.122C216.141 281.875 228.549 270.521 236.227 256.248L262.985 267.193C289.819 278.172 307.719 303.108 309.747 331.682H266.438V331.688Z" fill="#C4DFE6"/>
<path d="M168.562 309.938H179.438V320.812H168.562V309.938Z" fill="#66A5AD"/>
<path d="M168.562 288.188H179.438V299.062H168.562V288.188Z" fill="#66A5AD"/>
<path d="M168.562 266.438H179.438V277.312H168.562V266.438Z" fill="#66A5AD"/>
<path d="M174 38.0625V27.1875C153.92 27.1875 134.714 35.7788 121.316 50.7482L129.418 58.0018C140.761 45.327 157.008 38.0625 174 38.0625Z" fill="#66A5AD"/>
<path d="M122.186 67.9686L112.779 62.5203C110.615 66.2613 108.783 70.2306 107.342 74.3088L117.591 77.9356C118.809 74.4882 120.354 71.1387 122.186 67.9686Z" fill="#66A5AD"/>
<path d="M145 172C155.5 181.81 181.8 195.544 203 172" stroke="#07575B" stroke-width="4"/>
</svg>
