<svg width="27" height="26" viewBox="0 0 27 26" fill="none" xmlns="http://www.w3.org/2000/svg">
<path fill-rule="evenodd" clip-rule="evenodd" d="M13.5 26C20.9558 26 27 20.1797 27 13C27 5.8203 20.9558 0 13.5 0C6.04416 0 0 5.8203 0 13C0 20.1797 6.04416 26 13.5 26Z" fill="#66A5AD"/>
<path fill-rule="evenodd" clip-rule="evenodd" d="M10.3061 14.4172C11.0825 15.1728 12.3193 15.1728 13.0957 14.4172L18.3854 9.26958C18.7548 8.91014 19.3536 8.91014 19.723 9.26958C20.0923 9.62903 20.0923 10.2118 19.723 10.5713L12.3663 17.7304C11.997 18.0899 11.3981 18.0899 11.0288 17.7304C11.006 17.7083 10.9846 17.6852 10.9646 17.6615L7.27702 14.0729C6.90766 13.7134 6.90766 13.1306 7.27702 12.7712C7.64638 12.4117 8.24523 12.4117 8.61459 12.7712L10.3061 14.4172Z" fill="white"/>
</svg>
